<svg width="545" height="60" viewBox="0 0 545 60" fill="none" xmlns="http://www.w3.org/2000/svg">
<path d="M25.9516 1H27.4587C34.2345 1 40.7324 4.67663 45.5205 11.2198L73.0061 48.7802C77.7942 55.3234 84.2921 59 91.0679 59H122.606C133.695 59 139.252 40.7078 131.416 30C123.58 19.2922 129.137 1 140.226 1H171.764C178.54 1 185.038 4.67664 189.826 11.2198L217.312 48.7802C222.1 55.3234 228.598 59 235.373 59H266.912C278 59 283.557 40.7078 275.722 30C267.886 19.2922 273.443 1 284.531 1H316.07C322.846 1 329.343 4.67664 334.131 11.2198L361.617 48.7802C366.405 55.3234 372.903 59 379.679 59H411.217C422.306 59 427.863 40.7078 420.027 30C412.191 19.2922 417.748 1 428.837 1H458.018C466.303 1 474.248 5.4956 480.103 13.4962L513.401 59H544L510.702 13.4962C504.847 5.4956 496.902 1 488.617 1H459.436C448.347 1 442.79 19.2922 450.626 30C458.462 40.7078 452.905 59 441.816 59H410.278C403.502 59 397.004 55.3234 392.216 48.7802L364.73 11.2198C359.942 4.67664 353.444 1 346.668 1H315.13C304.042 1 298.485 19.2922 306.32 30C314.156 40.7078 308.599 59 297.511 59H265.972C259.196 59 252.699 55.3234 247.91 48.7802L220.425 11.2198C215.637 4.67664 209.139 1 202.363 1H170.825C159.736 1 154.179 19.2922 162.015 30C169.851 40.7078 164.294 59 153.205 59H121.667C114.891 59 108.393 55.3234 103.605 48.7802L76.1193 11.2198C71.3312 4.67663 64.8333 1 58.0575 1H56.5504C34.3732 1 23.2594 37.5843 38.9308 59H8.33194C-7.33944 37.5843 3.77441 1 25.9516 1Z" stroke="#E3E4EE"/>
</svg>
